<?xml version="1.0" encoding="UTF-8"?>
<svg viewBox="0 0 960 540" xmlns="http://www.w3.org/2000/svg" role="img" aria-labelledby="hir-ing-title hir-ing-desc">
      <title id="hir-ing-title">Two ingress shapes</title>
      <desc id="hir-ing-desc">Chat hits the Chat NAFD. The jobs API and Kafka job start hit the API NAFD. NAFDs ask the NACP to classify. On route the NAFD stores the frozen route and async-starts Agent runtime. NACP and Agent runtime are separate boxes. Kafka runs_topic is return, not a third NAFD. The NACP does not start Agent runtime.</desc>
      <defs>
        <style>@import url('https://fonts.googleapis.com/css2?family=Instrument+Serif:ital@0;1&amp;family=Inter:wght@400;500;600;700&amp;display=swap');</style>
        <marker id="hir-ing-arrow" markerWidth="8" markerHeight="6" refX="7" refY="3" orient="auto"><polygon points="0 0, 8 3, 0 6" fill="#64748b"/></marker>
        <marker id="hir-ing-arrow-accent" markerWidth="8" markerHeight="6" refX="7" refY="3" orient="auto"><polygon points="0 0, 8 3, 0 6" fill="#f97316"/></marker>
        <marker id="hir-ing-arrow-link" markerWidth="8" markerHeight="6" refX="7" refY="3" orient="auto"><polygon points="0 0, 8 3, 0 6" fill="#2563eb"/></marker>
        <symbol id="hir-ing-db" viewBox="0 0 24 24" fill="none" stroke="#64748b" stroke-width="1.5" stroke-linecap="round" stroke-linejoin="round">
          <path d="M4 6a8 3 0 1 0 16 0a8 3 0 1 0 -16 0"/>
          <path d="M4 6v6a8 3 0 0 0 16 0v-6"/>
          <path d="M4 12v6a8 3 0 0 0 16 0v-6"/>
        </symbol>
      </defs>
      <rect width="100%" height="100%" fill="#f8fafc"/>

      <rect x="40" y="48" width="184" height="248" rx="8" fill="rgba(30,41,59,0.02)" stroke="rgba(30,41,59,0.10)" stroke-width="0.8"/>
      <rect x="96" y="52" width="72" height="12" rx="2" fill="#f8fafc"/>
      <text x="132" y="61" fill="rgba(30,41,59,0.40)" font-size="8" font-family="ui-monospace, SFMono-Regular, Menlo, Monaco, Consolas, monospace" text-anchor="middle" letter-spacing="0.14em">CHANNELS</text>

      <rect x="248" y="48" width="200" height="292" rx="8" fill="rgba(30,41,59,0.02)" stroke="rgba(30,41,59,0.10)" stroke-width="0.8"/>
      <rect x="290" y="52" width="116" height="12" rx="2" fill="#f8fafc"/>
      <text x="348" y="61" fill="rgba(30,41,59,0.40)" font-size="8" font-family="ui-monospace, SFMono-Regular, Menlo, Monaco, Consolas, monospace" text-anchor="middle" letter-spacing="0.14em">NAFD FLEETS</text>

      <rect x="492" y="176" width="220" height="180" rx="8" fill="rgba(30,41,59,0.02)" stroke="rgba(30,41,59,0.10)" stroke-width="0.8"/>
      <rect x="574" y="180" width="56" height="12" rx="2" fill="#f8fafc"/>
      <text x="602" y="189" fill="rgba(30,41,59,0.40)" font-size="8" font-family="ui-monospace, SFMono-Regular, Menlo, Monaco, Consolas, monospace" text-anchor="middle" letter-spacing="0.14em">NACP</text>

      <rect x="724" y="176" width="196" height="180" rx="8" fill="rgba(30,41,59,0.02)" stroke="rgba(30,41,59,0.10)" stroke-width="0.8"/>
      <rect x="802" y="180" width="40" height="12" rx="2" fill="#f8fafc"/>
      <text x="822" y="189" fill="rgba(30,41,59,0.40)" font-size="8" font-family="ui-monospace, SFMono-Regular, Menlo, Monaco, Consolas, monospace" text-anchor="middle" letter-spacing="0.14em">Agent runtime</text>

      <line x1="208" y1="116" x2="264" y2="116" stroke="#2563eb" stroke-width="1.2" marker-end="url(#hir-ing-arrow-link)"/>
      <line x1="208" y1="244" x2="264" y2="244" stroke="#2563eb" stroke-width="1.2" marker-end="url(#hir-ing-arrow-link)"/>
      <path d="M 432,116 H 456 Q 464,116 464,124 V 224 Q 464,232 472,232 H 512" fill="none" stroke="#64748b" stroke-width="1.2" marker-end="url(#hir-ing-arrow)"/>
      <line x1="432" y1="248" x2="512" y2="248" stroke="#64748b" stroke-width="1.2" marker-end="url(#hir-ing-arrow)"/>
      <path d="M 432,248 H 444 Q 452,248 452,240 V 156 Q 452,148 460,148 H 800 Q 808,148 808,156 V 216" fill="none" stroke="#f97316" stroke-width="1.4" marker-end="url(#hir-ing-arrow-accent)"/>

      <rect x="216" y="96" width="40" height="12" rx="2" fill="#f8fafc"/>
      <text x="236" y="105" fill="#2563eb" font-size="8" font-family="ui-monospace, SFMono-Regular, Menlo, Monaco, Consolas, monospace" text-anchor="middle" letter-spacing="0.06em">TURN</text>
      <rect x="216" y="224" width="32" height="12" rx="2" fill="#f8fafc"/>
      <text x="232" y="233" fill="#2563eb" font-size="8" font-family="ui-monospace, SFMono-Regular, Menlo, Monaco, Consolas, monospace" text-anchor="middle" letter-spacing="0.06em">JOB</text>
      <rect x="560" y="132" width="40" height="12" rx="2" fill="#f8fafc"/>
      <text x="580" y="141" fill="#f97316" font-size="8" font-family="ui-monospace, SFMono-Regular, Menlo, Monaco, Consolas, monospace" text-anchor="middle" letter-spacing="0.06em">START</text>
      <rect x="476" y="228" width="32" height="12" rx="2" fill="#f8fafc"/>
      <text x="492" y="237" fill="#64748b" font-size="8" font-family="ui-monospace, SFMono-Regular, Menlo, Monaco, Consolas, monospace" text-anchor="middle" letter-spacing="0.06em">ASK</text>

      <rect x="56" y="88" width="152" height="56" rx="6" fill="#f8fafc"/>
      <rect x="56" y="88" width="152" height="56" rx="6" fill="rgba(100,116,139,0.10)" stroke="#94a3b8" stroke-width="1"/>
      <text x="132" y="122" fill="#1e293b" font-size="12" font-weight="600" font-family="'Inter', sans-serif" text-anchor="middle">Chat UI</text>

      <rect x="56" y="216" width="152" height="56" rx="6" fill="#f8fafc"/>
      <rect x="56" y="216" width="152" height="56" rx="6" fill="rgba(100,116,139,0.10)" stroke="#94a3b8" stroke-width="1"/>
      <text x="132" y="242" fill="#1e293b" font-size="12" font-weight="600" font-family="'Inter', sans-serif" text-anchor="middle">Jobs API</text>
      <text x="132" y="256" fill="#64748b" font-size="8" font-family="ui-monospace, SFMono-Regular, Menlo, Monaco, Consolas, monospace" text-anchor="middle">HTTP · Kafka ingest</text>

      <rect x="264" y="88" width="168" height="56" rx="6" fill="#f8fafc"/>
      <rect x="264" y="88" width="168" height="56" rx="6" fill="#ffffff" stroke="#1e293b" stroke-width="1"/>
      <text x="348" y="114" fill="#1e293b" font-size="12" font-weight="600" font-family="'Inter', sans-serif" text-anchor="middle">NAFD</text>
      <text x="348" y="128" fill="#64748b" font-size="8" font-family="ui-monospace, SFMono-Regular, Menlo, Monaco, Consolas, monospace" text-anchor="middle">BFF</text>

      <rect x="264" y="216" width="168" height="56" rx="6" fill="#f8fafc"/>
      <rect x="264" y="216" width="168" height="56" rx="6" fill="#ffffff" stroke="#1e293b" stroke-width="1"/>
      <text x="348" y="242" fill="#1e293b" font-size="12" font-weight="600" font-family="'Inter', sans-serif" text-anchor="middle">NAFD</text>
      <text x="348" y="256" fill="#64748b" font-size="8" font-family="ui-monospace, SFMono-Regular, Menlo, Monaco, Consolas, monospace" text-anchor="middle">HTTP + Kafka worker</text>

      <line x1="348" y1="272" x2="348" y2="284" stroke="#64748b" stroke-width="1"/>
      <rect x="264" y="284" width="168" height="28" rx="6" fill="#f8fafc"/>
      <rect x="264" y="284" width="168" height="28" rx="6" fill="rgba(30,41,59,0.05)" stroke="#64748b" stroke-width="1"/>
      <use href="#hir-ing-db" x="276" y="288" width="20" height="20"/>
      <text x="360" y="302" fill="#1e293b" font-size="11" font-weight="600" font-family="'Inter', sans-serif" text-anchor="middle">Frozen route</text>

      <rect x="512" y="216" width="180" height="64" rx="6" fill="#f8fafc"/>
      <rect x="512" y="216" width="180" height="64" rx="6" fill="rgba(249,115,22,0.08)" stroke="#f97316" stroke-width="1"/>
      <text x="602" y="244" fill="#1e293b" font-size="12" font-weight="600" font-family="'Inter', sans-serif" text-anchor="middle">NACP</text>
      <text x="602" y="260" fill="#64748b" font-size="8" font-family="ui-monospace, SFMono-Regular, Menlo, Monaco, Consolas, monospace" text-anchor="middle">classify only</text>

      <rect x="732" y="216" width="168" height="64" rx="6" fill="#f8fafc"/>
      <rect x="732" y="216" width="168" height="64" rx="6" fill="#ffffff" stroke="#1e293b" stroke-width="1"/>
      <text x="816" y="244" fill="#1e293b" font-size="12" font-weight="600" font-family="'Inter', sans-serif" text-anchor="middle">Agent runtime</text>
      <text x="816" y="260" fill="#64748b" font-size="8" font-family="ui-monospace, SFMono-Regular, Menlo, Monaco, Consolas, monospace" text-anchor="middle">started by NAFD</text>

      <line x1="602" y1="280" x2="602" y2="296" stroke="#64748b" stroke-width="1"/>
      <rect x="512" y="296" width="180" height="40" rx="6" fill="#f8fafc"/>
      <rect x="512" y="296" width="180" height="40" rx="6" fill="rgba(30,41,59,0.05)" stroke="#64748b" stroke-width="1"/>
      <use href="#hir-ing-db" x="524" y="306" width="20" height="20"/>
      <text x="622" y="320" fill="#1e293b" font-size="11" font-weight="600" font-family="'Inter', sans-serif" text-anchor="middle">Route catalog</text>

      <line x1="816" y1="280" x2="816" y2="296" stroke="#64748b" stroke-width="1"/>
      <rect x="732" y="296" width="168" height="40" rx="6" fill="#f8fafc"/>
      <rect x="732" y="296" width="168" height="40" rx="6" fill="rgba(30,41,59,0.05)" stroke="#64748b" stroke-width="1"/>
      <use href="#hir-ing-db" x="744" y="306" width="20" height="20"/>
      <text x="834" y="320" fill="#1e293b" font-size="11" font-weight="600" font-family="'Inter', sans-serif" text-anchor="middle">Runs</text>

      <line x1="40" y1="440" x2="920" y2="440" stroke="rgba(30,41,59,0.10)" stroke-width="0.8"/>
      <text x="40" y="460" fill="#64748b" font-size="8" font-family="ui-monospace, SFMono-Regular, Menlo, Monaco, Consolas, monospace" letter-spacing="0.18em">LEGEND</text>
      <rect x="40" y="476" width="14" height="10" rx="2" fill="rgba(100,116,139,0.10)" stroke="#94a3b8" stroke-width="1"/>
      <text x="60" y="484" fill="#64748b" font-size="8" font-family="'Inter', sans-serif">Channel</text>
      <rect x="136" y="476" width="14" height="10" rx="2" fill="#ffffff" stroke="#1e293b" stroke-width="1"/>
      <text x="156" y="484" fill="#64748b" font-size="8" font-family="'Inter', sans-serif">NAFD / Agent runtime</text>
      <rect x="300" y="476" width="14" height="10" rx="2" fill="rgba(249,115,22,0.08)" stroke="#f97316" stroke-width="1"/>
      <text x="320" y="484" fill="#64748b" font-size="8" font-family="'Inter', sans-serif">NACP</text>
      <rect x="436" y="476" width="14" height="10" rx="2" fill="rgba(30,41,59,0.05)" stroke="#64748b" stroke-width="1"/>
      <text x="456" y="484" fill="#64748b" font-size="8" font-family="'Inter', sans-serif">Store</text>
    </svg>
